<svg xmlns="http://www.w3.org/2000/svg" width="41" height="41" viewBox="0 0 41 41">
    <g fill="#33A9E4" fill-rule="nonzero" stroke="#33A9E4" stroke-width=".5">
        <path d="M10.015 17.179h14.692c.273 0 .493-.221.493-.494v-8.24a.493.493 0 0 0-.493-.493H10.015a.493.493 0 0 0-.494.493v8.24c0 .273.221.494.494.494zm.494-8.24h13.704v7.253H10.509V8.939z"/>
        <path d="M20.975 10.797h-7.228a.493.493 0 1 0 0 .988h7.228a.493.493 0 1 0 0-.988zM20.975 13.345h-7.228a.493.493 0 1 0 0 .988h7.228a.493.493 0 1 0 0-.988z"/>
        <path d="M38.262 3.955L29.51 2.694A2.649 2.649 0 0 0 26.897.427H1.617a.493.493 0 0 0-.494.494v36.378c0 .273.22.494.494.494h16.836c.027.009.051.025.08.03l14.546 2.095a2.572 2.572 0 0 0 1.922-.49 2.574 2.574 0 0 0 1.013-1.705l4.443-30.834a2.594 2.594 0 0 0-2.195-2.934zM29.55 16.38l1.085.157a.494.494 0 0 0 .14-.978l-1.225-.177v-1.503l1.438.207a.497.497 0 0 0 .56-.418.495.495 0 0 0-.42-.56l-1.578-.227v-1.795l4.931.71-1 6.946-3.931-.567V16.38zm-.988-13.3v32.062c0 .918-.747 1.664-1.665 1.664H5.744V1.415h21.153c.918 0 1.665.746 1.665 1.664zM2.111 1.415h2.646v35.39H2.11V1.415zm37.368 5.333l-4.443 30.834c-.061.423-.284.798-.627 1.055a1.584 1.584 0 0 1-1.19.303l-7.958-1.147h1.637a2.655 2.655 0 0 0 2.652-2.652V19.173l4.28.616a.494.494 0 0 0 .56-.418l1.14-7.924a.494.494 0 0 0-.418-.56l-5.562-.801V3.698l8.571 1.235c.875.126 1.484.94 1.358 1.815z"/>
    </g>
</svg>
