<svg xmlns="http://www.w3.org/2000/svg" width="41" height="42" viewBox="0 0 41 42">
    <path fill="#33A9E4" fill-rule="nonzero" stroke="#33A9E4" stroke-width=".4" d="M38.8 26.867c-1.156-1.823-4.8-6.934-5.022-7.245-.356-.533-.89-.889-1.511-.978-.667-.133-1.378.045-1.956.445-1.155.8-1.511 2.355-.755 3.467L30.4 24.2l-4.311-1.733-4.667-9.645 2.622 1.334c1.423.888 3.245.444 4.134-.978a2.929 2.929 0 0 0 .4-2.267A3.108 3.108 0 0 0 27.244 9c-.4-.267-7.288-4.889-9.733-6.4-3.067-1.867-6.978-2-10.444-.356A11.507 11.507 0 0 0 1.156 8.6c-1.067 2.8-.978 5.867.177 8.622l5.511 11.822A3.015 3.015 0 0 0 9.6 30.778c.444 0 .844-.09 1.289-.267.578-.267 1.022-.667 1.289-1.155l.71 1.51c.356.756.934 1.29 1.734 1.556.356.134.667.178 1.022.178.4 0 .756-.089 1.156-.222l.533.178a2.756 2.756 0 0 0-.755.977c-.311.667-.311 1.334-.045 2 .267.623.711 1.067 1.334 1.29l9.289 3.644c.977.355 2 .533 2.977.533 3.69 0 7.29-2.222 8.934-5.822 1.333-2.845 1.2-5.956-.267-8.311zm-23.733 4.266a1.587 1.587 0 0 1-.934-.844L12.4 26.6c0-.044-.044-.089-.044-.089l-3.69-7.822c-.177-.356-.577-.489-.888-.311-.356.178-.49.578-.311.889l3.689 7.822c.4.844.044 1.822-.8 2.222-.845.4-1.823.045-2.223-.8L2.578 16.69C.4 11.622 2.622 5.844 7.6 3.489c3.067-1.422 6.489-1.333 9.2.311 2.444 1.467 9.644 6.311 9.689 6.356.4.222.622.622.755 1.066.09.445 0 .89-.222 1.29s-.622.621-1.066.755c-.445.089-.89 0-1.29-.223 0 0-.044 0-.044-.044l-4.844-2.489c-.222-.133-.49-.089-.711.045-2.445 1.733-6.4 1.422-8.445-.623a.698.698 0 0 0-.978 0 .698.698 0 0 0 0 .978c2.4 2.4 6.756 2.845 9.778 1.067l4.667 9.778L22.533 21c-.755-.311-1.555-.178-2.266.222l-2.09-4.444c-.177-.356-.577-.49-.888-.311-.356.177-.489.577-.311.889l2.31 4.888c-.044.045-.044.09-.088.178-.178.4-.267.8-.222 1.245l-.667-.267a2.558 2.558 0 0 0-2.133.133l-1.467-3.11c-.178-.356-.578-.49-.889-.312-.355.178-.489.578-.31.889l1.644 3.511a2.167 2.167 0 0 0-.134.311c-.31.667-.31 1.334-.044 2 .222.49.578.89 1.022 1.156a2.756 2.756 0 0 0-.756.978c-.31.666-.31 1.333-.044 2l.133.266c-.133-.044-.177-.089-.266-.089zm22.8 3.467c-1.823 3.956-6.311 6-10.223 4.622l-9.288-3.644c-.267-.09-.445-.311-.578-.578-.134-.267-.09-.622.044-.933.267-.623 1.022-.934 1.6-.711L25.6 35.8a.69.69 0 0 0 .489-1.289l-6.178-2.4-.089-.044s-3.022-1.2-3.11-1.245c-.179-.089-.268-.266-.356-.444-.134-.267-.09-.622.044-.934.133-.355.444-.577.756-.71.266-.09 7.022 2.444 7.022 2.444a.69.69 0 0 0 .489-1.29l-7.956-3.11c-.267-.09-.444-.311-.578-.578-.133-.267-.089-.622.045-.933.133-.267.31-.445.533-.623.311-.177.711-.266 1.067-.133l9.244 3.645a.69.69 0 0 0 .49-1.29l-6.49-2.577c-.31-.133-.533-.356-.622-.622-.133-.267-.089-.578 0-.845.089-.222.267-.4.444-.533.356-.267.8-.356 1.156-.178l9.556 4c.266.089.577.045.755-.178.178-.222.222-.533.089-.755 0 0-1.778-3.334-1.778-3.378-.355-.533-.178-1.244.4-1.644.267-.178.622-.267.934-.223.266.045.488.223.666.445.045.044 3.822 5.378 4.978 7.2 1.289 1.955 1.378 4.578.267 7.022z"/>
</svg>
