<svg xmlns="http://www.w3.org/2000/svg" width="23" height="40" viewBox="0 0 23 40">
    <g fill="#33A9E4" fill-rule="nonzero">
        <path d="M20.584 9.184l-.036.089c-.156.42-.561.602-.893.405L11.93 5.143 10.88 7.948l7.725 4.535c.332.198.483.701.322 1.122l-.031.089c-.156.42-.56.602-.893.405l-7.725-4.535-1.043 2.8 7.724 4.535c.338.197.483.701.322 1.122l-.03.093c-.157.421-.562.603-.894.405l-7.725-4.535-1.043 2.8 7.725 4.54c.332.198.483.702.322 1.123l-.037.093c-.155.421-.56.603-.893.405L6.982 18.41 5.94 21.216l7.725 4.535c.332.197.483.7.322 1.122l-.037.088c-.155.42-.56.603-.893.405l-7.724-4.535-1.05 2.8 7.726 4.535c.332.198.483.702.322 1.122l-.031.089c-.156.42-.561.602-.893.405l-7.72-4.54-1.044 2.8 7.725 4.535c.338.197.483.7.322 1.122l-.031.088c-.156.42-.56.603-.893.405L2.04 31.657l-.638 1.714c-.156.421-.561.603-.893.406l-.073-.042c-.332-.197-.483-.701-.322-1.122L12.096.509c.156-.42.56-.603.893-.405l.073.041c.332.198.482.702.322 1.123l-.841 2.254 7.724 4.535c.327.208.473.712.317 1.127z"/>
        <path d="M9.41 39.886l-.073-.042c-.332-.197-.478-.701-.322-1.122L20.997 6.618c.155-.42.56-.602.893-.405l.072.042c.333.197.478.7.322 1.122L10.302 39.48c-.16.42-.56.602-.893.405z"/>
    </g>
</svg>
