<svg xmlns="http://www.w3.org/2000/svg" width="16" height="11" viewBox="0 0 16 11">
    <path fill="#33A9E4" fill-rule="nonzero" d="M1.17.073C.94.073.73.144.55.262l6.927 6.044a.781.781 0 0 0 1.06 0L15.452.262a1.135 1.135 0 0 0-.622-.19H1.171zM.068.884A1.24 1.24 0 0 0 0 1.28v8.05c0 .243.07.466.189.655l4.957-4.66L.067.884zm15.866 0l-5.067 4.434 4.945 4.667c.118-.189.189-.412.189-.654V1.28c0-.14-.025-.272-.067-.397zm-5.665 4.962L9.037 6.922a1.562 1.562 0 0 1-2.067 0l-1.226-1.07-4.92 4.63c.11.035.225.056.347.056h13.658c.122 0 .238-.021.348-.056l-4.909-4.636z"/>
</svg>
