<svg xmlns="http://www.w3.org/2000/svg" width="48" height="35" viewBox="0 0 48 35">
    <path fill="#33A9E4" fill-rule="nonzero" stroke="#FFF" stroke-width=".3" d="M17.5.203C7.963.203.203 7.963.203 17.5c0 9.538 7.76 17.297 17.297 17.297.275 0 .542-.028.815-.04.069.014.131.04.202.04h9.157c7.293 0 13.227-5.934 13.227-13.227V7.326a5.093 5.093 0 0 1 5.087-5.088 1.018 1.018 0 0 0 0-2.035 7.13 7.13 0 0 0-7.122 7.123V21.57c0 6.172-5.022 11.192-11.192 11.192H25.62c5.453-2.914 9.177-8.659 9.177-15.262C34.797 7.963 27.037.203 17.5.203zm0 2.035c8.416 0 15.262 6.846 15.262 15.262S25.916 32.762 17.5 32.762 2.238 25.916 2.238 17.5 9.084 2.238 17.5 2.238zm0 2.035a4.074 4.074 0 0 0-4.07 4.07 4.074 4.074 0 0 0 4.07 4.07 4.074 4.074 0 0 0 4.07-4.07 4.074 4.074 0 0 0-4.07-4.07zm0 2.035c1.123 0 2.035.914 2.035 2.035a2.037 2.037 0 0 1-2.035 2.035 2.037 2.037 0 0 1-2.035-2.035c0-1.121.912-2.035 2.035-2.035zM9.213 8.951c-.265.02-.529.07-.79.143a4.055 4.055 0 0 0-2.453 1.924 4.073 4.073 0 0 0 1.554 5.54 4.041 4.041 0 0 0 1.987.529c.37 0 .74-.054 1.105-.155a4.047 4.047 0 0 0 2.449-1.924 4.053 4.053 0 0 0-1.55-5.54 4.04 4.04 0 0 0-2.302-.517zm16.578 0a4.037 4.037 0 0 0-2.302.517 4.04 4.04 0 0 0-1.927 2.448 4.034 4.034 0 0 0 .373 3.092 4.047 4.047 0 0 0 2.449 1.924c.366.101.734.155 1.105.155a4.079 4.079 0 0 0 3.545-6.069 4.049 4.049 0 0 0-2.453-1.924 4.049 4.049 0 0 0-.79-.143zM9.519 10.978c.344 0 .687.09.994.262.474.267.815.7.962 1.224a2.02 2.02 0 0 1-.183 1.546 2.032 2.032 0 0 1-2.77.775 2.04 2.04 0 0 1-.78-2.77 2.022 2.022 0 0 1 1.229-.961c.183-.051.365-.076.548-.076zm15.962 0c.185 0 .367.025.548.076.525.146.962.487 1.228.961.55.98.2 2.225-.779 2.774a2.042 2.042 0 0 1-2.77-.779 2.02 2.02 0 0 1-.183-1.546c.145-.523.486-.957.962-1.224.307-.173.65-.262.994-.262zm-7.981 3.47a3.056 3.056 0 0 0-3.052 3.052 3.056 3.056 0 0 0 3.052 3.052 3.056 3.056 0 0 0 3.052-3.052 3.056 3.056 0 0 0-3.052-3.052zm0 2.035c.56 0 1.017.455 1.017 1.017a1.02 1.02 0 0 1-1.017 1.017 1.02 1.02 0 0 1-1.017-1.017 1.02 1.02 0 0 1 1.017-1.017zm-7.679 1.442a4.034 4.034 0 0 0-2.297.517 4.074 4.074 0 0 0-1.558 5.54A4.055 4.055 0 0 0 8.42 25.91a4.046 4.046 0 0 0 3.092-.374 4.046 4.046 0 0 0 1.927-2.448 4.041 4.041 0 0 0-.373-3.096 4.047 4.047 0 0 0-2.449-1.924 4.129 4.129 0 0 0-.795-.143zm15.354.004c-.265.02-.53.067-.791.14a4.047 4.047 0 0 0-2.449 1.923 4.043 4.043 0 0 0-.377 3.092 4.047 4.047 0 0 0 1.927 2.448 4.046 4.046 0 0 0 3.092.374 4.055 4.055 0 0 0 2.453-1.924 4.073 4.073 0 0 0-3.855-6.053zm.31 2.02c.343 0 .686.089.993.262a2.044 2.044 0 0 1 .78 2.774 2.04 2.04 0 0 1-3.736-.45 2.021 2.021 0 0 1 .186-1.545 2.02 2.02 0 0 1 1.777-1.042zm-15.974.003a2.043 2.043 0 0 1 1.781 1.038 2.02 2.02 0 0 1 .183 1.546 2.039 2.039 0 0 1-3.736.45 2.042 2.042 0 0 1 .783-2.775c.307-.173.646-.259.99-.259zm7.989 2.635a4.074 4.074 0 0 0-4.07 4.07 4.074 4.074 0 0 0 4.07 4.07 4.074 4.074 0 0 0 4.07-4.07 4.074 4.074 0 0 0-4.07-4.07zm0 2.035c1.123 0 2.035.914 2.035 2.035a2.037 2.037 0 0 1-2.035 2.035 2.037 2.037 0 0 1-2.035-2.035c0-1.121.912-2.035 2.035-2.035z"/>
</svg>
