<svg xmlns="http://www.w3.org/2000/svg" width="20" height="20" viewBox="0 0 20 20">
    <path fill="#33A9E4" fill-rule="nonzero" d="M17.656.307c-1.104.804-1.965 1.885-2.854 2.883a127.808 127.808 0 0 0-4.227 5.129 165.62 165.62 0 0 0-4.226 5.545c-.323.443-.673.915-.996 1.386a63.403 63.403 0 0 0-2.692-3.798C1.368 9.76-.893 12.117.372 13.78c1.32 1.719 2.504 3.548 3.635 5.406.592.97 2.261 1.192 2.8 0 .538-1.248 1.426-2.357 2.207-3.438 1.238-1.719 2.53-3.41 3.85-5.073 1.319-1.664 2.665-3.327 4.065-4.935.511-.583.996-1.165 1.534-1.72l.62-.637c.215-.222.43-.388.215-.222 1.67-1.22.054-4.103-1.642-2.855z"/>
</svg>
