<svg xmlns="http://www.w3.org/2000/svg" width="50" height="42" viewBox="0 0 50 42">
    <g fill="#33A9E4" fill-rule="nonzero" stroke="#FFF">
        <path d="M25.5 1.45C12.65 1.45 2.2 9.5 2.2 19.4c0 3.5 1.3 6.85 3.7 9.75-.95 1.8-2.3 4-3.85 5.8-.95 1.1-1.1 2.65-.4 3.9.6 1.05 1.7 1.7 2.9 1.7.2 0 .4 0 .65-.05 4.75-.9 9.3-2.7 12.4-4.2 2.5.7 5.15 1.05 7.85 1.05 12.85 0 23.25-8.05 23.25-17.95 0-9.9-10.4-17.95-23.2-17.95zm0 32.75c-2.6 0-5.1-.35-7.5-1.1-.4-.1-.8-.1-1.15.1-2.95 1.45-7.45 3.3-12.15 4.15-.05 0-.1 0-.2-.1-.05-.15 0-.2.05-.25 2.05-2.35 3.7-5.3 4.8-7.4.3-.6.2-1.35-.25-1.8-2.35-2.5-3.6-5.4-3.6-8.4 0-8.15 9-14.8 20.1-14.8 11.1 0 20.1 6.65 20.1 14.8s-9.15 14.8-20.2 14.8z"/>
        <path d="M19.85 12.5c-1.05 0-1.95.4-2.75 1.2-.8.8-1.2 1.65-1.2 2.7 0 .95.35 1.8.95 2.6.65.8 1.7.95 2.6 1-.15 1.25-.85 2.55-1.55 3.45-.1.15-.2.3-.35.45-.2.2-.2.55 0 .75L19 26.2c.2.25.6.2.8 0 .6-.7 1.2-1.45 1.75-2.3 1.45-2.25 2.15-4.55 2.15-6.8 0-1.35-.4-2.4-1.2-3.25-.7-.9-1.6-1.35-2.65-1.35zM31.1 12.5c-1.05 0-1.95.4-2.75 1.2-.8.8-1.2 1.65-1.2 2.7 0 .95.35 1.8.95 2.6.65.8 1.7.95 2.6 1-.15 1.25-.85 2.55-1.55 3.45-.1.15-.2.3-.35.45-.2.2-.2.55 0 .75l1.45 1.55c.2.25.6.2.8 0 .6-.7 1.2-1.45 1.75-2.3 1.45-2.25 2.15-4.55 2.15-6.8 0-1.35-.4-2.4-1.2-3.25-.7-.9-1.6-1.35-2.65-1.35z"/>
    </g>
</svg>
