<svg xmlns="http://www.w3.org/2000/svg" width="38" height="40" viewBox="0 0 38 40">
    <g fill="#33A9E4" fill-rule="nonzero" stroke="#FFF" stroke-width=".2">
        <path d="M1.6 28.092a1.004 1.004 0 0 1-.184-2l2.66-.492a1.001 1.001 0 1 1 .368 1.968l-2.664.496c-.059.015-.12.024-.18.028zM6.104 32.224A1 1 0 0 1 4.4 31.2l1.268-2.092a1 1 0 0 1 1.712 1.036l-1.276 2.08zM5.108 24a.996.996 0 0 1-.608-.208l-1.94-1.496a1.006 1.006 0 1 1 1.22-1.6l1.94 1.496A1 1 0 0 1 5.108 24zM6.484 16.484a2.932 2.932 0 0 1 1.2-1.024 5.06 5.06 0 0 0 2.756-4.26c.021-.536.074-1.07.156-1.6C11.292 5.3 14 .2 22.876.2h.164c7.936 0 14.116 5.268 14.716 12.556a13.696 13.696 0 0 1-1.932 8.268 13.72 13.72 0 0 0-.78 13.092 1 1 0 0 1-.208 1.156 18.256 18.256 0 0 1-11.868 4.532 17.712 17.712 0 0 1-3.872-.432 1 1 0 0 1-.8-.976v-4.108a18.828 18.828 0 0 1-5.96-.12A3.524 3.524 0 0 1 9.664 29.6a3.66 3.66 0 0 0-.1-.968l-.124-.496a1.696 1.696 0 0 1 .22-1.336c.25-.385.648-.65 1.1-.732 1.22-.216 2.044-.736 2.4-1.504A13.004 13.004 0 0 1 9.248 24a1 1 0 0 1-.676-.996l.116-2.352a5.06 5.06 0 0 1-1.94-1.308 2.4 2.4 0 0 1-.264-2.86zm1.756 1.54c.48.486 1.092.822 1.76.968A1 1 0 0 1 10.716 20l-.112 2.3c.919.202 1.86.287 2.8.252a1.784 1.784 0 0 1 1.48.692c.36.468.468 1.081.292 1.644-.284.916-1.144 2.5-3.716 3.076l.044.172c.157.628.19 1.28.096 1.92a.964.964 0 0 1-.036.124c-.153.422-.112.89.112 1.28.22.391.603.663 1.044.74a16.8 16.8 0 0 0 4.544.2 10.96 10.96 0 0 0 4.308-1.24 5.78 5.78 0 0 0 2.132-1.796 1 1 0 0 1 1.676 1.092 7.72 7.72 0 0 1-2.852 2.46c-.704.382-1.445.691-2.212.924v3.736c6.316 1.08 11.072-2.096 12.608-3.304a15.756 15.756 0 0 1 1.2-14.284 11.704 11.704 0 0 0 1.64-7.068C35.252 6.7 29.908 2.2 23.032 2.2h-.152c-6.08 0-9.468 2.524-10.308 7.708a12 12 0 0 0-.132 1.4 7.04 7.04 0 0 1-3.8 5.912 1.6 1.6 0 0 0-.44.296.432.432 0 0 0 .04.508z"/>
    </g>
</svg>
