<svg xmlns="http://www.w3.org/2000/svg" width="15" height="13" viewBox="0 0 15 13">
    <path fill="#FFF" fill-rule="evenodd" d="M11.49 12.856a.72.72 0 0 0 .692.095.746.746 0 0 0 .452-.546C13.177 9.75 14.494 3.03 14.99.616a.52.52 0 0 0-.162-.492.485.485 0 0 0-.498-.091C11.709 1.04 3.638 4.19.339 5.46A.538.538 0 0 0 0 5.98c.008.23.156.43.37.496 1.48.46 3.422 1.1 3.422 1.1s.908 2.85 1.38 4.3c.06.182.197.325.377.375a.527.527 0 0 0 .507-.135l1.935-1.9s2.233 1.703 3.499 2.64zm-6.881-5.64l1.05 3.6.232-2.28 6.366-5.97a.186.186 0 0 0 .02-.245.173.173 0 0 0-.235-.042C9.364 4.059 4.61 7.216 4.61 7.216z"/>
</svg>
