<?xml version="1.0" encoding="UTF-8"?>
<svg width="35px" height="36px" viewBox="0 0 35 36" version="1.1" xmlns="http://www.w3.org/2000/svg" xmlns:xlink="http://www.w3.org/1999/xlink">
    <!-- Generator: Sketch 55 (78076) - https://sketchapp.com -->
    <title>user</title>
    <desc>Created with Sketch.</desc>
    <g id="user" stroke="none" stroke-width="1" fill="none" fill-rule="evenodd">
        <g id="noun_group_2211626-copy-3" transform="translate(1.000000, 1.000000)" fill="#33A9E4" fill-rule="nonzero" stroke="#29A8E7">
            <path d="M21.2177598,19.8057089 C24.7044031,18.0913309 27.1119197,14.548749 27.1119197,10.4540115 C27.1119197,4.6908258 22.3516028,0 16.5010133,0 C10.6524503,0 5.89112012,4.68982732 5.89112012,10.4540115 C5.89112012,14.548749 8.29964996,18.0903324 11.7862933,19.8057089 C0.72752395,22.3747797 0.00810611643,33.7883237 0,33.9191237 L1.64351511,34 C1.66985999,33.465817 2.49465733,20.91002 16.5,20.91002 C30.5063559,20.91002 31.3311533,33.465817 31.3585114,34 L33,33.9191237 C32.9949337,33.7893222 32.2745026,22.3747797 21.2177598,19.8057089 Z M7.53767502,10.4540115 C7.53767502,5.58346059 11.559322,1.62052156 16.5020265,1.62052156 C21.4457443,1.62052156 25.466378,5.58346059 25.466378,10.4540115 C25.466378,15.3245624 21.4457443,19.2884999 16.5020265,19.2884999 C11.559322,19.2894984 7.53767502,15.3255609 7.53767502,10.4540115 Z" id="Shape"></path>
        </g>
    </g>
</svg>