<?xml version="1.0" encoding="UTF-8"?>
<svg width="63px" height="37px" viewBox="0 0 63 37" version="1.1" xmlns="http://www.w3.org/2000/svg" xmlns:xlink="http://www.w3.org/1999/xlink">
    <!-- Generator: Sketch 55 (78076) - https://sketchapp.com -->
    <title>noun_group_2211626 copy 2</title>
    <desc>Created with Sketch.</desc>
    <g id="Page-1" stroke="none" stroke-width="1" fill="none" fill-rule="evenodd">
        <g id="users" fill="#33A9E4" fill-rule="nonzero" stroke="#29A8E7">
            <g id="noun_group_2211626-copy-2" transform="translate(1.000000, 1.000000)">
                <path d="M33.7881356,24.9805004 C36.2182203,23.7703512 37.8961864,21.2697052 37.8961864,18.3793022 C37.8961864,14.3111712 34.5783898,11 30.5007062,11 C26.424435,11 23.1059322,14.3104663 23.1059322,18.3793022 C23.1059322,21.2697052 24.7846045,23.7696464 27.2146893,24.9805004 C19.5070621,26.7939622 19.0056497,34.8505815 19,34.9429108 L20.1454802,35 C20.1638418,34.6229296 20.7387006,25.7600141 30.5,25.7600141 C40.2620056,25.7600141 40.8368644,34.6229296 40.8559322,35 L42,34.9429108 C41.9964689,34.8512863 41.4943503,26.7939622 33.7881356,24.9805004 Z M24.2535311,18.3793022 C24.2535311,14.9412663 27.0564972,12.1438976 30.5014124,12.1438976 C33.9470339,12.1438976 36.7492938,14.9412663 36.7492938,18.3793022 C36.7492938,21.8173382 33.9470339,24.6154117 30.5014124,24.6154117 C27.0564972,24.6161165 24.2535311,21.818043 24.2535311,18.3793022 Z" id="Shape"></path>
                <path d="M43.9802322,18.980911 C46.3530629,17.7700214 47.9914952,15.2700068 47.9914952,12.379519 C47.9914952,8.31056357 44.7525572,5 40.7709459,5 C37.6630272,5 35.0143662,7.02214326 34,9.84426302 C34.3627169,9.94575783 34.7144006,10.074036 35.0516033,10.2290975 C35.9128836,7.84890312 38.1477991,6.14393116 40.7709459,6.14393116 C44.1353867,6.14393116 46.8730031,8.94067722 46.8730031,12.379519 C46.8730031,15.8176559 44.1353867,18.6151068 40.7709459,18.6151068 C40.2185956,18.6151068 39.6855534,18.5326422 39.1752672,18.3909724 C39.0725204,18.9224105 39.0283875,19.222666 38.8270314,19.9000029 C39.4655787,19.7999178 40.0268935,19.7590379 40.7709459,19.7590379 C50.3036433,19.7590379 50.8642685,28.6222137 50.8821974,29 L52,28.9429092 C51.9965521,28.8512819 51.5062636,20.794426 43.9802322,18.980911 Z" id="Path"></path>
                <path d="M17.0187711,18.980911 C14.6460313,17.7700214 13.0083512,15.2700068 13.0083512,12.379519 C13.0083512,8.31056357 16.2471652,5 20.228624,5 C23.3364235,5 25.9849831,7.02214326 27,9.84426302 C26.637297,9.94575783 26.2849372,10.074036 25.9470579,10.2290975 C25.0878793,7.84890312 22.8530493,6.14393116 20.228624,6.14393116 C16.864312,6.14393116 14.1281796,8.94067722 14.1281796,12.379519 C14.1281796,15.8176559 16.864312,18.6151068 20.228624,18.6151068 C20.7809531,18.6151068 21.3146644,18.5326422 21.8235519,18.3909724 C21.9276739,18.9224105 21.970426,19.222666 22.1731535,19.9000029 C21.5339412,19.7999178 20.9726479,19.7590379 20.228624,19.7590379 C10.6969813,19.7590379 10.1363776,28.6222137 10.1170702,29 L9,28.9429092 C9.00344775,28.8512819 9.49440699,20.794426 17.0187711,18.980911 Z" id="Path"></path>
                <path d="M31.015765,1.18293424 C33.8387468,1.18293424 36.2224113,3.15935335 36.9686202,5.85049228 C37.2965317,5.64118148 37.6405585,5.45739638 38,5.30351282 C37.0505981,2.23094688 34.2794655,0 31.015765,0 C27.7149292,0 24.917872,2.2819983 24,5.40926219 C24.3580401,5.57773186 24.7013663,5.77537377 25.0264752,6 C25.7257395,3.23228394 28.1409339,1.18293424 31.015765,1.18293424 Z" id="Path"></path>
                <path d="M52.9805394,13.9802062 C55.3532792,12.7693166 56.9902697,10.2693019 56.9902697,7.37951896 C56.9902697,3.31056357 53.7521453,0 49.771376,0 C46.6621974,0 44.0150169,2.02214326 43,4.84426302 C43.3620135,4.94575783 43.7150628,5.07333118 44.0522525,5.22909753 C44.9121207,2.84819829 47.1476402,1.14393116 49.771376,1.14393116 C53.1349985,1.14393116 55.8718204,3.94138204 55.8718204,7.37951896 C55.8718204,10.8176559 53.1349985,13.6151068 49.771376,13.6151068 C49.2176678,13.6151068 48.6853356,13.5326422 48.175069,13.3916772 C48.0723261,13.9231153 48.0288845,14.222666 47.8268465,14.9000029 C48.4653693,14.8006226 49.0273521,14.7590379 49.771376,14.7590379 C59.3030187,14.7590379 59.8629329,23.6229186 59.8822403,24 L61,23.9429092 C60.9965523,23.8505771 60.5049035,15.7937212 52.9805394,13.9802062 Z" id="Path"></path>
                <path d="M8.01946062,13.9802062 C5.64672081,12.7693166 4.00904076,10.2693019 4.00904076,7.37951896 C4.00904076,3.31056357 7.24785473,0 11.2279344,0 C14.3371131,0 16.9849831,2.02214326 18,4.84426302 C17.6379865,4.94575783 17.2856267,5.07333118 16.9470579,5.22909753 C16.0885688,2.84819829 13.8530493,1.14393116 11.2279344,1.14393116 C7.86500153,1.14393116 5.12886914,3.94138204 5.12886914,7.37951896 C5.12886914,10.8176559 7.86500153,13.6151068 11.2279344,13.6151068 C11.7816427,13.6151068 12.315354,13.5326422 12.8242415,13.3916772 C12.9283635,13.9231153 12.9711155,14.222666 13.1731535,14.9000029 C12.5339412,14.8006226 11.9733374,14.7590379 11.2279344,14.7590379 C1.69767086,14.7590379 1.13637757,23.6229186 1.11775973,24 L0,23.9429092 C0.00413729697,23.8505771 0.495096537,15.7937212 8.01946062,13.9802062 Z" id="Path"></path>
            </g>
        </g>
    </g>
</svg>