<svg xmlns="http://www.w3.org/2000/svg" width="14" height="15" viewBox="0 0 14 15">
    <path fill="#FFF" fill-rule="nonzero" d="M13.594 3.312c-.26-.91-.776-1.628-1.53-2.136-.954-.643-2.05-.87-2.997-1.009C7.757-.023 6.57-.05 5.439.084c-1.06.127-1.858.33-2.585.657C1.426 1.384.57 2.421.308 3.826c-.12.625-.207 1.255-.263 1.888-.115 1.36-.01 2.564.318 3.68.32 1.088.879 1.865 1.708 2.376.211.13.482.224.743.314.149.051.294.1.412.156.11.05.11.058.108.147-.009.774 0 2.29 0 2.29l.003.323h.593l.097-.092c.063-.058 1.535-1.45 2.06-2.01l.071-.078c.09-.101.09-.101.183-.103a65.1 65.1 0 0 0 2.15-.078c.872-.046 1.88-.13 2.831-.516.87-.356 1.505-.92 1.887-1.676.398-.79.634-1.645.722-2.614.157-1.705.046-3.184-.337-4.521zm-3.132 6.627c-.22.348-.545.59-.929.747-.281.114-.567.09-.845-.025C6.367 9.7 4.545 8.186 3.342 6.007c-.249-.448-.42-.937-.619-1.411-.04-.097-.037-.212-.056-.319.017-.765.618-1.197 1.224-1.327.232-.05.438.03.61.191.471.44.857.962 1.136 1.538.124.253.068.478-.143.666a2.07 2.07 0 0 1-.138.11c-.482.355-.552.624-.295 1.157.437.908 1.164 1.519 2.102 1.897.248.1.48.05.67-.147.026-.025.054-.05.073-.081.37-.604.907-.544 1.403-.2.326.227.642.466.964.697.49.353.487.684.189 1.161zm-3.08-6.026c-.11 0-.219.009-.326.027a.337.337 0 0 1-.312-.115.32.32 0 0 1-.055-.321.332.332 0 0 1 .257-.207 2.63 2.63 0 0 1 .436-.036c1.444 0 2.619 1.149 2.619 2.561 0 .145-.012.288-.037.428a.333.333 0 0 1-.382.26.327.327 0 0 1-.275-.368 1.883 1.883 0 0 0-.435-1.55 1.973 1.973 0 0 0-1.49-.679zM9.001 5.87a.33.33 0 0 1-.334.326.33.33 0 0 1-.333-.326.991.991 0 0 0-1-.979A.33.33 0 0 1 7 4.565c0-.179.15-.326.333-.326C8.254 4.24 9 4.97 9 5.87zm1.903.725a.334.334 0 0 1-.4.245.326.326 0 0 1-.25-.39c.048-.21.072-.425.072-.64 0-1.585-1.319-2.875-2.939-2.875-.221 0-.441.024-.653.071a.338.338 0 0 1-.252-.041.325.325 0 0 1-.104-.45.332.332 0 0 1 .209-.144c.26-.059.53-.088.8-.088 1.989 0 3.606 1.582 3.606 3.527 0 .265-.03.529-.089.785z"/>
</svg>
